<?xml version="1.0" encoding="UTF-8" standalone="no"?>
<!-- Created with Inkscape (http://www.inkscape.org/) -->

<svg
   width="82.963356mm"
   height="145.92917mm"
   viewBox="0 0 82.963356 145.92917"
   version="1.1"
   id="svg1"
   xml:space="preserve"
   sodipodi:docname="绘图.svg"
   xmlns:inkscape="http://www.inkscape.org/namespaces/inkscape"
   xmlns:sodipodi="http://sodipodi.sourceforge.net/DTD/sodipodi-0.dtd"
   xmlns="http://www.w3.org/2000/svg"
   xmlns:svg="http://www.w3.org/2000/svg"
   xmlns:rdf="http://www.w3.org/1999/02/22-rdf-syntax-ns#"
   xmlns:cc="http://creativecommons.org/ns#"
   xmlns:dc="http://purl.org/dc/elements/1.1/"><defs
     id="defs1" /><sodipodi:namedview
     id="base"
     pagecolor="#ffffff"
     bordercolor="#000000"
     borderopacity="0.3"
     inkscape:pageopacity="0.0"
     inkscape:pageshadow="2"
     inkscape:zoom="0.98994949"
     inkscape:cx="458.60926"
     inkscape:cy="745.99765"
     inkscape:document-units="mm"
     inkscape:showpageshadow="2"
     inkscape:pagecheckerboard="0"
     inkscape:deskcolor="#d1d1d1"
     inkscape:window-width="1920"
     inkscape:window-height="1000"
     inkscape:window-x="-11"
     inkscape:window-y="-11"
     inkscape:window-maximized="1"
     inkscape:current-layer="layer1" /><metadata
     id="metadata1"><rdf:RDF><cc:Work
         rdf:about=""><dc:format>image/svg+xml</dc:format><dc:type
           rdf:resource="http://purl.org/dc/dcmitype/StillImage" /></cc:Work></rdf:RDF></metadata><g
     id="layer1"
     inkscape:label="木马"
     style="opacity:1"
     transform="translate(-56.879918,-112.52044)"><path
       style="opacity:1;fill:#de3163;fill-opacity:1;stroke:none;stroke-width:0.264583;stroke-opacity:1"
       d="m 108.37779,173.99246 c -19.680486,-5.90699 -39.31194,2.15643 -39.555888,4.67722 -1.329273,-3.47225 -4.726201,-2.39566 -7.750815,-2.13816 -7.132333,9.24962 -4.191453,26.63923 1.603615,27.39512 2.618605,-11.89986 2.644418,-10.88948 3.60814,-16.1698 l -0.400905,12.16076 c -1.442386,3.71713 2.131338,7.19539 8.151723,10.55715 l -2.539061,1.20271 2.806329,5.07812 c 4.217782,-3.60201 3.597038,-3.04494 3.741772,-8.15172 l -7.34991,-5.47902 c 4.500743,2.72065 8.947716,5.33376 13.096205,7.34991 0.331148,0.91845 -0.756334,1.70477 0.07042,2.26922 0.826751,0.56445 3.567734,0.90703 5.14134,0.93801 0.23978,-3.58107 6.375669,-7.04421 -10.022607,-10.95804 3.863402,-2.10162 7.689594,-4.22804 8.418989,-8.419 10.880458,4.20447 17.313893,1.73841 24.856063,0.93545 3.28763,3.03775 5.92303,6.72773 12.96257,6.01356 6.58008,0.94031 6.21701,3.05565 7.61718,9.08716 l -2.67269,1.87089 1.33635,5.87993 c 2.42424,-1.94116 5.58193,-3.14887 6.01356,-7.08264 0.34045,-3.74177 -2.09977,-7.48355 -3.34087,-11.22532 l -8.01808,-3.34087 c 3.84373,-0.26591 10.85406,-2.80087 7.75082,3.47451 l 1.73724,4.00904 c 2.77499,-3.52106 4.56387,-7.26126 4.14268,-11.49259 l -3.74177,-2.13816 c -0.95553,-0.66306 -3.36695,-0.49418 -6.81537,0.26727 1.7685,-5.46387 -0.6594,-11.76701 -2.2718,-17.90706 12.48689,3.67263 7.558,-8.169 4.40995,-14.16528 -1.6079,-6.13672 -9.11715,-5.64189 -14.03165,-5.47903 -10.57002,5.71247 -9.16363,9.74042 -8.95353,20.98066 z"
       id="path1"
       sodipodi:nodetypes="ccccccccccccsccccccccccccccccccccc" /><rect
       style="fill:#de3163;fill-opacity:1;stroke:none;stroke-width:0.311862;stroke-opacity:1"
       id="rect1"
       width="1.8708867"
       height="145.92917"
       x="97.820648"
       y="112.52045"
       inkscape:label="rect1" /></g></svg>
